# xmcd
#
# Track frame offsets: 
#        150
#        21723
#        39235
#        49846
#        63778
#        83969
#        102643
#        115685
#        131596
#        148733
#        164522
#        175867
#        200279
#
# Disc length: 2921 seconds
#
# Revision: 0
# Processed by: cddbd v1.5.2PL0 Copyright (c) Steve Scherf et al.
# Submitted via: ExactAudioCopy v1.0b3
#
DISCID=b70b670d
DTITLE=Various Artist - Back to Back to Black
DYEAR=2012
DGENRE=Bluegrass
TTITLE0=The Time and Space Machine - Rehab
TTITLE1=Hollie Cook - You Know I'm No Good
TTITLE2=Dry The River - Me and Mr Jones
TTITLE3=Saint Etienne - Just Friends
TTITLE4=The Cribs - Back To Black
TTITLE5=The Temper Trap - Love Is A Losing Game
TTITLE6=Karima Francis - Tears Dry On Their Own
TTITLE7=Manic Street Preachers - Wake Up Alone
TTITLE8=Swindle Feat. Baby Sol - Some Unholy War
TTITLE9=The Balearic Folk Orchestra - He Can Only Hold Her
TTITLE10=The View - Addicted
TTITLE11=Zed Bias Fest. Trigga and Trevor Roots - Monkey Man
TTITLE12=Jabru Feat. Maz Totterdell - Valerie
EXTD=
EXTT0=
EXTT1=
EXTT2=
EXTT3=
EXTT4=
EXTT5=
EXTT6=
EXTT7=
EXTT8=
EXTT9=
EXTT10=
EXTT11=
EXTT12=
PLAYORDER=
